<mxfile host="Electron" modified="2023-06-01T23:47:15.582Z" agent="Mozilla/5.0 (Macintosh; Intel Mac OS X 10_15_7) AppleWebKit/537.36 (KHTML, like Gecko) draw.io/21.1.2 Chrome/106.0.5249.199 Electron/21.4.3 Safari/537.36" etag="KN057yg4EyQYq6_B-859" version="21.1.2" type="device" pages="7">
  <diagram name="git-init" id="-YxyPpJIQUArzZvzlgh2">
    <mxGraphModel dx="1194" dy="812" grid="1" gridSize="10" guides="1" tooltips="1" connect="1" arrows="1" fold="1" page="1" pageScale="1" pageWidth="827" pageHeight="1169" math="0" shadow="0">
      <root>
        <mxCell id="0" />
        <mxCell id="1" parent="0" />
        <mxCell id="hqATwPrgu74nvOjBv1BX-1" value="" style="rounded=0;whiteSpace=wrap;html=1;strokeWidth=2;" vertex="1" parent="1">
          <mxGeometry x="180" y="240" width="320" height="370" as="geometry" />
        </mxCell>
        <mxCell id="ZlquYvv8OyFAxpBDzK-X-1" value="&lt;h1&gt;git init&lt;/h1&gt;&lt;p&gt;&lt;br&gt;&lt;/p&gt;" style="text;html=1;strokeColor=none;fillColor=none;spacing=5;spacingTop=-20;whiteSpace=wrap;overflow=hidden;rounded=0;" parent="1" vertex="1">
          <mxGeometry x="87.22" y="200" width="190" height="70" as="geometry" />
        </mxCell>
        <mxCell id="yZu9iDbFmFyv74gO4Je9-7" value="" style="rounded=0;whiteSpace=wrap;html=1;strokeWidth=2;strokeColor=#67AB9F;" parent="1" vertex="1">
          <mxGeometry x="190" y="250" width="300" height="110" as="geometry" />
        </mxCell>
        <mxCell id="yZu9iDbFmFyv74gO4Je9-2" value="" style="sketch=0;aspect=fixed;pointerEvents=1;shadow=0;dashed=0;html=1;strokeColor=none;labelPosition=center;verticalLabelPosition=bottom;verticalAlign=top;align=center;fillColor=#222222;shape=mxgraph.azure.computer" parent="1" vertex="1">
          <mxGeometry x="87.22" y="360" width="77.78" height="70" as="geometry" />
        </mxCell>
        <mxCell id="yZu9iDbFmFyv74gO4Je9-3" value="Local" style="text;html=1;strokeColor=none;fillColor=none;align=center;verticalAlign=middle;whiteSpace=wrap;rounded=0;" parent="1" vertex="1">
          <mxGeometry x="96.11000000000001" y="330" width="60" height="30" as="geometry" />
        </mxCell>
        <mxCell id="yZu9iDbFmFyv74gO4Je9-8" value="repository" style="text;html=1;strokeColor=none;fillColor=none;align=left;verticalAlign=middle;whiteSpace=wrap;rounded=0;fontStyle=1" parent="1" vertex="1">
          <mxGeometry x="196" y="250" width="60" height="30" as="geometry" />
        </mxCell>
        <mxCell id="cRdxDxRjVK9_Y9O7wucG-1" value="" style="rounded=0;whiteSpace=wrap;html=1;strokeWidth=2;strokeColor=#EA6B66;" parent="1" vertex="1">
          <mxGeometry x="190" y="370" width="300" height="110" as="geometry" />
        </mxCell>
        <mxCell id="cRdxDxRjVK9_Y9O7wucG-2" value="staging" style="text;html=1;strokeColor=none;fillColor=none;align=left;verticalAlign=middle;whiteSpace=wrap;rounded=0;fontStyle=1" parent="1" vertex="1">
          <mxGeometry x="196" y="370" width="60" height="30" as="geometry" />
        </mxCell>
        <mxCell id="cRdxDxRjVK9_Y9O7wucG-3" value="" style="rounded=0;whiteSpace=wrap;html=1;strokeWidth=2;strokeColor=#A680B8;" parent="1" vertex="1">
          <mxGeometry x="190" y="490" width="300" height="110" as="geometry" />
        </mxCell>
        <mxCell id="cRdxDxRjVK9_Y9O7wucG-4" value="working directory" style="text;html=1;strokeColor=none;fillColor=none;align=left;verticalAlign=middle;whiteSpace=wrap;rounded=0;fontStyle=1" parent="1" vertex="1">
          <mxGeometry x="196" y="490" width="116" height="30" as="geometry" />
        </mxCell>
        <mxCell id="hqATwPrgu74nvOjBv1BX-2" value="learning_git" style="text;html=1;align=right;verticalAlign=middle;resizable=0;points=[];autosize=1;strokeColor=none;fillColor=none;" vertex="1" parent="1">
          <mxGeometry x="410" y="210" width="90" height="30" as="geometry" />
        </mxCell>
      </root>
    </mxGraphModel>
  </diagram>
  <diagram name="git-file" id="vsoEqmSqKzCADp6hCpRs">
    <mxGraphModel dx="1194" dy="812" grid="1" gridSize="10" guides="1" tooltips="1" connect="1" arrows="1" fold="1" page="1" pageScale="1" pageWidth="827" pageHeight="1169" math="0" shadow="0">
      <root>
        <mxCell id="FIYHvJH0AeBGkTyXwpkK-0" />
        <mxCell id="FIYHvJH0AeBGkTyXwpkK-1" parent="FIYHvJH0AeBGkTyXwpkK-0" />
        <mxCell id="nVtSJCHb0RSraCJJyfON-0" value="" style="rounded=0;whiteSpace=wrap;html=1;strokeWidth=2;" vertex="1" parent="FIYHvJH0AeBGkTyXwpkK-1">
          <mxGeometry x="352.78" y="340" width="320" height="370" as="geometry" />
        </mxCell>
        <mxCell id="nVtSJCHb0RSraCJJyfON-1" value="learning_git" style="text;html=1;align=right;verticalAlign=middle;resizable=0;points=[];autosize=1;strokeColor=none;fillColor=none;" vertex="1" parent="FIYHvJH0AeBGkTyXwpkK-1">
          <mxGeometry x="582.78" y="310" width="90" height="30" as="geometry" />
        </mxCell>
        <mxCell id="6olMR2F98lCyMHbFJEq0-2" value="&lt;h1&gt;Create a file&lt;/h1&gt;&lt;p&gt;&lt;br&gt;&lt;/p&gt;" style="text;html=1;strokeColor=none;fillColor=none;spacing=5;spacingTop=-20;whiteSpace=wrap;overflow=hidden;rounded=0;" parent="FIYHvJH0AeBGkTyXwpkK-1" vertex="1">
          <mxGeometry x="260" y="290" width="270" height="70" as="geometry" />
        </mxCell>
        <mxCell id="Saw3qlOga7E181A_jt4V-0" value="" style="rounded=0;whiteSpace=wrap;html=1;strokeWidth=2;strokeColor=#67AB9F;" parent="FIYHvJH0AeBGkTyXwpkK-1" vertex="1">
          <mxGeometry x="362.78" y="350" width="300" height="110" as="geometry" />
        </mxCell>
        <mxCell id="Saw3qlOga7E181A_jt4V-1" value="" style="sketch=0;aspect=fixed;pointerEvents=1;shadow=0;dashed=0;html=1;strokeColor=none;labelPosition=center;verticalLabelPosition=bottom;verticalAlign=top;align=center;fillColor=#222222;shape=mxgraph.azure.computer" parent="FIYHvJH0AeBGkTyXwpkK-1" vertex="1">
          <mxGeometry x="260" y="460" width="77.78" height="70" as="geometry" />
        </mxCell>
        <mxCell id="Saw3qlOga7E181A_jt4V-2" value="Local" style="text;html=1;strokeColor=none;fillColor=none;align=center;verticalAlign=middle;whiteSpace=wrap;rounded=0;" parent="FIYHvJH0AeBGkTyXwpkK-1" vertex="1">
          <mxGeometry x="268.89" y="430" width="60" height="30" as="geometry" />
        </mxCell>
        <mxCell id="Saw3qlOga7E181A_jt4V-3" value="repository" style="text;html=1;strokeColor=none;fillColor=none;align=left;verticalAlign=middle;whiteSpace=wrap;rounded=0;fontStyle=1" parent="FIYHvJH0AeBGkTyXwpkK-1" vertex="1">
          <mxGeometry x="368.78" y="350" width="60" height="30" as="geometry" />
        </mxCell>
        <mxCell id="Saw3qlOga7E181A_jt4V-4" value="" style="rounded=0;whiteSpace=wrap;html=1;strokeWidth=2;strokeColor=#EA6B66;" parent="FIYHvJH0AeBGkTyXwpkK-1" vertex="1">
          <mxGeometry x="362.78" y="470" width="300" height="110" as="geometry" />
        </mxCell>
        <mxCell id="Saw3qlOga7E181A_jt4V-5" value="staging" style="text;html=1;strokeColor=none;fillColor=none;align=left;verticalAlign=middle;whiteSpace=wrap;rounded=0;fontStyle=1" parent="FIYHvJH0AeBGkTyXwpkK-1" vertex="1">
          <mxGeometry x="368.78" y="470" width="60" height="30" as="geometry" />
        </mxCell>
        <mxCell id="Saw3qlOga7E181A_jt4V-6" value="" style="rounded=0;whiteSpace=wrap;html=1;strokeWidth=2;strokeColor=#A680B8;" parent="FIYHvJH0AeBGkTyXwpkK-1" vertex="1">
          <mxGeometry x="362.78" y="590" width="300" height="110" as="geometry" />
        </mxCell>
        <mxCell id="Saw3qlOga7E181A_jt4V-7" value="working directory" style="text;html=1;strokeColor=none;fillColor=none;align=left;verticalAlign=middle;whiteSpace=wrap;rounded=0;fontStyle=1" parent="FIYHvJH0AeBGkTyXwpkK-1" vertex="1">
          <mxGeometry x="368.78" y="590" width="113.22" height="30" as="geometry" />
        </mxCell>
        <mxCell id="6olMR2F98lCyMHbFJEq0-0" value="" style="whiteSpace=wrap;html=1;shape=mxgraph.basic.document" parent="FIYHvJH0AeBGkTyXwpkK-1" vertex="1">
          <mxGeometry x="394" y="630" width="40" height="40" as="geometry" />
        </mxCell>
        <mxCell id="6olMR2F98lCyMHbFJEq0-1" value="README.md" style="text;html=1;align=center;verticalAlign=middle;resizable=0;points=[];autosize=1;strokeColor=none;fillColor=none;" parent="FIYHvJH0AeBGkTyXwpkK-1" vertex="1">
          <mxGeometry x="369" y="670" width="90" height="30" as="geometry" />
        </mxCell>
      </root>
    </mxGraphModel>
  </diagram>
  <diagram name="git-add" id="ITcef8kENN064lZRTPvi">
    <mxGraphModel dx="1194" dy="812" grid="1" gridSize="10" guides="1" tooltips="1" connect="1" arrows="1" fold="1" page="1" pageScale="1" pageWidth="827" pageHeight="1169" math="0" shadow="0">
      <root>
        <mxCell id="UZeBuf4rFTnawCBUfYBG-0" />
        <mxCell id="UZeBuf4rFTnawCBUfYBG-1" parent="UZeBuf4rFTnawCBUfYBG-0" />
        <mxCell id="g2d2jYpHRuw7SIdADAEn-0" value="" style="rounded=0;whiteSpace=wrap;html=1;strokeWidth=2;" vertex="1" parent="UZeBuf4rFTnawCBUfYBG-1">
          <mxGeometry x="179.99999999999997" y="240" width="320" height="370" as="geometry" />
        </mxCell>
        <mxCell id="g2d2jYpHRuw7SIdADAEn-1" value="learning_git" style="text;html=1;align=right;verticalAlign=middle;resizable=0;points=[];autosize=1;strokeColor=none;fillColor=none;" vertex="1" parent="UZeBuf4rFTnawCBUfYBG-1">
          <mxGeometry x="410" y="210" width="90" height="30" as="geometry" />
        </mxCell>
        <mxCell id="QjUlexEIWqS3jKyvGFIQ-0" value="" style="rounded=0;whiteSpace=wrap;html=1;strokeWidth=2;strokeColor=#67AB9F;" parent="UZeBuf4rFTnawCBUfYBG-1" vertex="1">
          <mxGeometry x="190" y="250" width="300" height="110" as="geometry" />
        </mxCell>
        <mxCell id="QjUlexEIWqS3jKyvGFIQ-1" value="" style="sketch=0;aspect=fixed;pointerEvents=1;shadow=0;dashed=0;html=1;strokeColor=none;labelPosition=center;verticalLabelPosition=bottom;verticalAlign=top;align=center;fillColor=#222222;shape=mxgraph.azure.computer" parent="UZeBuf4rFTnawCBUfYBG-1" vertex="1">
          <mxGeometry x="87.22" y="360" width="77.78" height="70" as="geometry" />
        </mxCell>
        <mxCell id="QjUlexEIWqS3jKyvGFIQ-2" value="Local" style="text;html=1;strokeColor=none;fillColor=none;align=center;verticalAlign=middle;whiteSpace=wrap;rounded=0;" parent="UZeBuf4rFTnawCBUfYBG-1" vertex="1">
          <mxGeometry x="96.11000000000001" y="330" width="60" height="30" as="geometry" />
        </mxCell>
        <mxCell id="QjUlexEIWqS3jKyvGFIQ-3" value="repository" style="text;html=1;strokeColor=none;fillColor=none;align=left;verticalAlign=middle;whiteSpace=wrap;rounded=0;fontStyle=1" parent="UZeBuf4rFTnawCBUfYBG-1" vertex="1">
          <mxGeometry x="196" y="250" width="60" height="30" as="geometry" />
        </mxCell>
        <mxCell id="QjUlexEIWqS3jKyvGFIQ-4" value="" style="rounded=0;whiteSpace=wrap;html=1;strokeWidth=2;strokeColor=#EA6B66;" parent="UZeBuf4rFTnawCBUfYBG-1" vertex="1">
          <mxGeometry x="190" y="370" width="300" height="110" as="geometry" />
        </mxCell>
        <mxCell id="QjUlexEIWqS3jKyvGFIQ-5" value="staging" style="text;html=1;strokeColor=none;fillColor=none;align=left;verticalAlign=middle;whiteSpace=wrap;rounded=0;fontStyle=1" parent="UZeBuf4rFTnawCBUfYBG-1" vertex="1">
          <mxGeometry x="196" y="370" width="60" height="30" as="geometry" />
        </mxCell>
        <mxCell id="QjUlexEIWqS3jKyvGFIQ-6" value="" style="rounded=0;whiteSpace=wrap;html=1;strokeWidth=2;strokeColor=#A680B8;" parent="UZeBuf4rFTnawCBUfYBG-1" vertex="1">
          <mxGeometry x="190" y="490" width="300" height="110" as="geometry" />
        </mxCell>
        <mxCell id="QjUlexEIWqS3jKyvGFIQ-7" value="working directory" style="text;html=1;strokeColor=none;fillColor=none;align=left;verticalAlign=middle;whiteSpace=wrap;rounded=0;fontStyle=1" parent="UZeBuf4rFTnawCBUfYBG-1" vertex="1">
          <mxGeometry x="196" y="490" width="116" height="30" as="geometry" />
        </mxCell>
        <mxCell id="QjUlexEIWqS3jKyvGFIQ-8" value="" style="whiteSpace=wrap;html=1;shape=mxgraph.basic.document" parent="UZeBuf4rFTnawCBUfYBG-1" vertex="1">
          <mxGeometry x="215" y="410" width="40" height="40" as="geometry" />
        </mxCell>
        <mxCell id="QjUlexEIWqS3jKyvGFIQ-9" value="README.md" style="text;html=1;align=center;verticalAlign=middle;resizable=0;points=[];autosize=1;strokeColor=none;fillColor=none;" parent="UZeBuf4rFTnawCBUfYBG-1" vertex="1">
          <mxGeometry x="190" y="450" width="90" height="30" as="geometry" />
        </mxCell>
        <mxCell id="dAOEFKQYgUzx5aFdq-kA-0" value="&lt;h1&gt;git add README.md&lt;/h1&gt;" style="text;html=1;strokeColor=none;fillColor=none;spacing=5;spacingTop=-20;whiteSpace=wrap;overflow=hidden;rounded=0;" parent="UZeBuf4rFTnawCBUfYBG-1" vertex="1">
          <mxGeometry x="80" y="188" width="270" height="70" as="geometry" />
        </mxCell>
        <mxCell id="OmRHJ6eIKyZmBFCU5yNt-0" value="" style="endArrow=classic;html=1;curved=1;" edge="1" parent="UZeBuf4rFTnawCBUfYBG-1">
          <mxGeometry width="50" height="50" relative="1" as="geometry">
            <mxPoint x="270" y="550" as="sourcePoint" />
            <mxPoint x="270" y="440" as="targetPoint" />
            <Array as="points">
              <mxPoint x="360" y="490" />
            </Array>
          </mxGeometry>
        </mxCell>
      </root>
    </mxGraphModel>
  </diagram>
  <diagram name="git-commit" id="_FfShILvcAFEhgcJJ4aj">
    <mxGraphModel dx="1194" dy="812" grid="1" gridSize="10" guides="1" tooltips="1" connect="1" arrows="1" fold="1" page="1" pageScale="1" pageWidth="827" pageHeight="1169" math="0" shadow="0">
      <root>
        <mxCell id="XSUbhdxcEVcOYjpkGr-C-0" />
        <mxCell id="XSUbhdxcEVcOYjpkGr-C-1" parent="XSUbhdxcEVcOYjpkGr-C-0" />
        <mxCell id="MfGGx97EDilf3toNMk_y-0" value="" style="rounded=0;whiteSpace=wrap;html=1;strokeWidth=2;" vertex="1" parent="XSUbhdxcEVcOYjpkGr-C-1">
          <mxGeometry x="179.99999999999997" y="240" width="320" height="370" as="geometry" />
        </mxCell>
        <mxCell id="MfGGx97EDilf3toNMk_y-1" value="learning_git" style="text;html=1;align=right;verticalAlign=middle;resizable=0;points=[];autosize=1;strokeColor=none;fillColor=none;" vertex="1" parent="XSUbhdxcEVcOYjpkGr-C-1">
          <mxGeometry x="410" y="210" width="90" height="30" as="geometry" />
        </mxCell>
        <mxCell id="XSUbhdxcEVcOYjpkGr-C-2" value="" style="rounded=0;whiteSpace=wrap;html=1;strokeWidth=2;strokeColor=#67AB9F;" parent="XSUbhdxcEVcOYjpkGr-C-1" vertex="1">
          <mxGeometry x="190" y="250" width="300" height="110" as="geometry" />
        </mxCell>
        <mxCell id="XSUbhdxcEVcOYjpkGr-C-3" value="" style="sketch=0;aspect=fixed;pointerEvents=1;shadow=0;dashed=0;html=1;strokeColor=none;labelPosition=center;verticalLabelPosition=bottom;verticalAlign=top;align=center;fillColor=#222222;shape=mxgraph.azure.computer" parent="XSUbhdxcEVcOYjpkGr-C-1" vertex="1">
          <mxGeometry x="87.22" y="360" width="77.78" height="70" as="geometry" />
        </mxCell>
        <mxCell id="XSUbhdxcEVcOYjpkGr-C-4" value="Local" style="text;html=1;strokeColor=none;fillColor=none;align=center;verticalAlign=middle;whiteSpace=wrap;rounded=0;" parent="XSUbhdxcEVcOYjpkGr-C-1" vertex="1">
          <mxGeometry x="96.11000000000001" y="330" width="60" height="30" as="geometry" />
        </mxCell>
        <mxCell id="XSUbhdxcEVcOYjpkGr-C-5" value="repository" style="text;html=1;strokeColor=none;fillColor=none;align=left;verticalAlign=middle;whiteSpace=wrap;rounded=0;fontStyle=1" parent="XSUbhdxcEVcOYjpkGr-C-1" vertex="1">
          <mxGeometry x="196" y="250" width="60" height="30" as="geometry" />
        </mxCell>
        <mxCell id="XSUbhdxcEVcOYjpkGr-C-6" value="" style="rounded=0;whiteSpace=wrap;html=1;strokeWidth=2;strokeColor=#EA6B66;" parent="XSUbhdxcEVcOYjpkGr-C-1" vertex="1">
          <mxGeometry x="190" y="370" width="300" height="110" as="geometry" />
        </mxCell>
        <mxCell id="XSUbhdxcEVcOYjpkGr-C-7" value="staging" style="text;html=1;strokeColor=none;fillColor=none;align=left;verticalAlign=middle;whiteSpace=wrap;rounded=0;fontStyle=1" parent="XSUbhdxcEVcOYjpkGr-C-1" vertex="1">
          <mxGeometry x="196" y="370" width="60" height="30" as="geometry" />
        </mxCell>
        <mxCell id="XSUbhdxcEVcOYjpkGr-C-8" value="" style="rounded=0;whiteSpace=wrap;html=1;strokeWidth=2;strokeColor=#A680B8;" parent="XSUbhdxcEVcOYjpkGr-C-1" vertex="1">
          <mxGeometry x="190" y="490" width="300" height="110" as="geometry" />
        </mxCell>
        <mxCell id="XSUbhdxcEVcOYjpkGr-C-9" value="working directory" style="text;html=1;strokeColor=none;fillColor=none;align=left;verticalAlign=middle;whiteSpace=wrap;rounded=0;fontStyle=1" parent="XSUbhdxcEVcOYjpkGr-C-1" vertex="1">
          <mxGeometry x="196" y="490" width="116" height="30" as="geometry" />
        </mxCell>
        <mxCell id="XSUbhdxcEVcOYjpkGr-C-10" value="" style="whiteSpace=wrap;html=1;shape=mxgraph.basic.document" parent="XSUbhdxcEVcOYjpkGr-C-1" vertex="1">
          <mxGeometry x="215" y="290" width="40" height="40" as="geometry" />
        </mxCell>
        <mxCell id="XSUbhdxcEVcOYjpkGr-C-11" value="README.md" style="text;html=1;align=center;verticalAlign=middle;resizable=0;points=[];autosize=1;strokeColor=none;fillColor=none;" parent="XSUbhdxcEVcOYjpkGr-C-1" vertex="1">
          <mxGeometry x="190" y="330" width="90" height="30" as="geometry" />
        </mxCell>
        <mxCell id="XSUbhdxcEVcOYjpkGr-C-12" value="&lt;h1&gt;git commit -m &quot;message&quot;&lt;/h1&gt;" style="text;html=1;strokeColor=none;fillColor=none;spacing=5;spacingTop=-20;whiteSpace=wrap;overflow=hidden;rounded=0;" parent="XSUbhdxcEVcOYjpkGr-C-1" vertex="1">
          <mxGeometry x="79" y="180" width="350" height="70" as="geometry" />
        </mxCell>
        <mxCell id="rqK7GGPLaOEI7zJ6sDIa-0" value="" style="endArrow=classic;html=1;curved=1;" edge="1" parent="XSUbhdxcEVcOYjpkGr-C-1">
          <mxGeometry width="50" height="50" relative="1" as="geometry">
            <mxPoint x="270" y="430" as="sourcePoint" />
            <mxPoint x="270" y="320" as="targetPoint" />
            <Array as="points">
              <mxPoint x="360" y="370" />
            </Array>
          </mxGeometry>
        </mxCell>
      </root>
    </mxGraphModel>
  </diagram>
  <diagram id="oav_KaQNIgASNn9GYi1O" name="create-github">
    <mxGraphModel dx="1194" dy="812" grid="1" gridSize="10" guides="1" tooltips="1" connect="1" arrows="1" fold="1" page="1" pageScale="1" pageWidth="827" pageHeight="1169" math="0" shadow="0">
      <root>
        <mxCell id="0" />
        <mxCell id="1" parent="0" />
        <mxCell id="UGCbMftMWqdsoCMZL1pl-1" value="" style="rounded=0;whiteSpace=wrap;html=1;strokeWidth=2;" vertex="1" parent="1">
          <mxGeometry x="610" y="240" width="320" height="370" as="geometry" />
        </mxCell>
        <mxCell id="yRsJhULzBp8TWrmPor1F-1" value="" style="rounded=0;whiteSpace=wrap;html=1;strokeWidth=2;" vertex="1" parent="1">
          <mxGeometry x="179.99999999999997" y="240" width="320" height="370" as="geometry" />
        </mxCell>
        <mxCell id="yRsJhULzBp8TWrmPor1F-2" value="learning_git" style="text;html=1;align=right;verticalAlign=middle;resizable=0;points=[];autosize=1;strokeColor=none;fillColor=none;" vertex="1" parent="1">
          <mxGeometry x="410" y="210" width="90" height="30" as="geometry" />
        </mxCell>
        <mxCell id="a9VAbbiZVvmUka3tZX2u-1" value="" style="rounded=0;whiteSpace=wrap;html=1;strokeWidth=2;strokeColor=#67AB9F;" parent="1" vertex="1">
          <mxGeometry x="190" y="250" width="300" height="110" as="geometry" />
        </mxCell>
        <mxCell id="a9VAbbiZVvmUka3tZX2u-2" value="" style="sketch=0;aspect=fixed;pointerEvents=1;shadow=0;dashed=0;html=1;strokeColor=none;labelPosition=center;verticalLabelPosition=bottom;verticalAlign=top;align=center;fillColor=#222222;shape=mxgraph.azure.computer" parent="1" vertex="1">
          <mxGeometry x="87.22" y="360" width="77.78" height="70" as="geometry" />
        </mxCell>
        <mxCell id="a9VAbbiZVvmUka3tZX2u-3" value="Local" style="text;html=1;strokeColor=none;fillColor=none;align=center;verticalAlign=middle;whiteSpace=wrap;rounded=0;" parent="1" vertex="1">
          <mxGeometry x="96.11000000000001" y="330" width="60" height="30" as="geometry" />
        </mxCell>
        <mxCell id="a9VAbbiZVvmUka3tZX2u-4" value="repository" style="text;html=1;strokeColor=none;fillColor=none;align=left;verticalAlign=middle;whiteSpace=wrap;rounded=0;fontStyle=1" parent="1" vertex="1">
          <mxGeometry x="196" y="250" width="60" height="30" as="geometry" />
        </mxCell>
        <mxCell id="a9VAbbiZVvmUka3tZX2u-5" value="" style="rounded=0;whiteSpace=wrap;html=1;strokeWidth=2;strokeColor=#EA6B66;" parent="1" vertex="1">
          <mxGeometry x="190" y="370" width="300" height="110" as="geometry" />
        </mxCell>
        <mxCell id="a9VAbbiZVvmUka3tZX2u-6" value="staging" style="text;html=1;strokeColor=none;fillColor=none;align=left;verticalAlign=middle;whiteSpace=wrap;rounded=0;fontStyle=1" parent="1" vertex="1">
          <mxGeometry x="196" y="370" width="60" height="30" as="geometry" />
        </mxCell>
        <mxCell id="a9VAbbiZVvmUka3tZX2u-7" value="" style="rounded=0;whiteSpace=wrap;html=1;strokeWidth=2;strokeColor=#A680B8;" parent="1" vertex="1">
          <mxGeometry x="190" y="490" width="300" height="110" as="geometry" />
        </mxCell>
        <mxCell id="a9VAbbiZVvmUka3tZX2u-8" value="working directory" style="text;html=1;strokeColor=none;fillColor=none;align=left;verticalAlign=middle;whiteSpace=wrap;rounded=0;fontStyle=1" parent="1" vertex="1">
          <mxGeometry x="196" y="490" width="116" height="30" as="geometry" />
        </mxCell>
        <mxCell id="a9VAbbiZVvmUka3tZX2u-11" value="&lt;h1&gt;Create a repository on GitHub.com&lt;/h1&gt;" style="text;html=1;strokeColor=none;fillColor=none;spacing=5;spacingTop=-20;whiteSpace=wrap;overflow=hidden;rounded=0;" parent="1" vertex="1">
          <mxGeometry x="80" y="170" width="430" height="70" as="geometry" />
        </mxCell>
        <mxCell id="a9VAbbiZVvmUka3tZX2u-12" value="" style="verticalLabelPosition=bottom;html=1;verticalAlign=top;align=center;strokeColor=none;fillColor=#333333;shape=mxgraph.azure.github_code;pointerEvents=1;" parent="1" vertex="1">
          <mxGeometry x="610" y="180" width="50" height="50" as="geometry" />
        </mxCell>
        <mxCell id="a9VAbbiZVvmUka3tZX2u-13" value="GitHub" style="text;html=1;strokeColor=none;fillColor=none;align=center;verticalAlign=middle;whiteSpace=wrap;rounded=0;" parent="1" vertex="1">
          <mxGeometry x="604" y="150" width="60" height="30" as="geometry" />
        </mxCell>
        <mxCell id="hScLiqYNuRBypge_krDD-1" value="" style="whiteSpace=wrap;html=1;shape=mxgraph.basic.document" parent="1" vertex="1">
          <mxGeometry x="215" y="290" width="40" height="40" as="geometry" />
        </mxCell>
        <mxCell id="hScLiqYNuRBypge_krDD-2" value="README.md" style="text;html=1;align=center;verticalAlign=middle;resizable=0;points=[];autosize=1;strokeColor=none;fillColor=none;" parent="1" vertex="1">
          <mxGeometry x="190" y="330" width="90" height="30" as="geometry" />
        </mxCell>
        <mxCell id="UGCbMftMWqdsoCMZL1pl-2" value="https://github.com/YOUR_NAME/lerning_git" style="text;html=1;align=right;verticalAlign=middle;resizable=0;points=[];autosize=1;strokeColor=none;fillColor=none;" vertex="1" parent="1">
          <mxGeometry x="670" y="210" width="260" height="30" as="geometry" />
        </mxCell>
      </root>
    </mxGraphModel>
  </diagram>
  <diagram name="github-remote-add" id="JijEMHi6HCqEIebqfVGM">
    <mxGraphModel dx="1194" dy="812" grid="1" gridSize="10" guides="1" tooltips="1" connect="1" arrows="1" fold="1" page="1" pageScale="1" pageWidth="827" pageHeight="1169" math="0" shadow="0">
      <root>
        <mxCell id="IJfOhzG1JKlrrVF2jmxx-0" />
        <mxCell id="IJfOhzG1JKlrrVF2jmxx-1" parent="IJfOhzG1JKlrrVF2jmxx-0" />
        <mxCell id="invjvzj8y4gYJv51G8TF-0" value="" style="rounded=0;whiteSpace=wrap;html=1;strokeWidth=2;" vertex="1" parent="IJfOhzG1JKlrrVF2jmxx-1">
          <mxGeometry x="179.99999999999997" y="240" width="320" height="370" as="geometry" />
        </mxCell>
        <mxCell id="invjvzj8y4gYJv51G8TF-1" value="learning_git" style="text;html=1;align=right;verticalAlign=middle;resizable=0;points=[];autosize=1;strokeColor=none;fillColor=none;" vertex="1" parent="IJfOhzG1JKlrrVF2jmxx-1">
          <mxGeometry x="410" y="210" width="90" height="30" as="geometry" />
        </mxCell>
        <mxCell id="IJfOhzG1JKlrrVF2jmxx-2" value="" style="rounded=0;whiteSpace=wrap;html=1;strokeWidth=2;strokeColor=#67AB9F;" parent="IJfOhzG1JKlrrVF2jmxx-1" vertex="1">
          <mxGeometry x="190" y="250" width="300" height="110" as="geometry" />
        </mxCell>
        <mxCell id="IJfOhzG1JKlrrVF2jmxx-3" value="" style="sketch=0;aspect=fixed;pointerEvents=1;shadow=0;dashed=0;html=1;strokeColor=none;labelPosition=center;verticalLabelPosition=bottom;verticalAlign=top;align=center;fillColor=#222222;shape=mxgraph.azure.computer" parent="IJfOhzG1JKlrrVF2jmxx-1" vertex="1">
          <mxGeometry x="87.22" y="360" width="77.78" height="70" as="geometry" />
        </mxCell>
        <mxCell id="IJfOhzG1JKlrrVF2jmxx-4" value="Local" style="text;html=1;strokeColor=none;fillColor=none;align=center;verticalAlign=middle;whiteSpace=wrap;rounded=0;" parent="IJfOhzG1JKlrrVF2jmxx-1" vertex="1">
          <mxGeometry x="96.11000000000001" y="330" width="60" height="30" as="geometry" />
        </mxCell>
        <mxCell id="IJfOhzG1JKlrrVF2jmxx-5" value="repository" style="text;html=1;strokeColor=none;fillColor=none;align=center;verticalAlign=middle;whiteSpace=wrap;rounded=0;fontStyle=1" parent="IJfOhzG1JKlrrVF2jmxx-1" vertex="1">
          <mxGeometry x="194" y="250" width="60" height="30" as="geometry" />
        </mxCell>
        <mxCell id="IJfOhzG1JKlrrVF2jmxx-6" value="" style="rounded=0;whiteSpace=wrap;html=1;strokeWidth=2;strokeColor=#EA6B66;" parent="IJfOhzG1JKlrrVF2jmxx-1" vertex="1">
          <mxGeometry x="190" y="370" width="300" height="110" as="geometry" />
        </mxCell>
        <mxCell id="IJfOhzG1JKlrrVF2jmxx-7" value="staging" style="text;html=1;strokeColor=none;fillColor=none;align=left;verticalAlign=middle;whiteSpace=wrap;rounded=0;fontStyle=1" parent="IJfOhzG1JKlrrVF2jmxx-1" vertex="1">
          <mxGeometry x="194" y="370" width="60" height="30" as="geometry" />
        </mxCell>
        <mxCell id="IJfOhzG1JKlrrVF2jmxx-8" value="" style="rounded=0;whiteSpace=wrap;html=1;strokeWidth=2;strokeColor=#A680B8;" parent="IJfOhzG1JKlrrVF2jmxx-1" vertex="1">
          <mxGeometry x="190" y="490" width="300" height="110" as="geometry" />
        </mxCell>
        <mxCell id="IJfOhzG1JKlrrVF2jmxx-9" value="working directory" style="text;html=1;strokeColor=none;fillColor=none;align=left;verticalAlign=middle;whiteSpace=wrap;rounded=0;fontStyle=1" parent="IJfOhzG1JKlrrVF2jmxx-1" vertex="1">
          <mxGeometry x="194" y="490" width="116" height="30" as="geometry" />
        </mxCell>
        <mxCell id="IJfOhzG1JKlrrVF2jmxx-10" value="&lt;h1&gt;git remote add origin https://~~&lt;/h1&gt;" style="text;html=1;strokeColor=none;fillColor=none;spacing=5;spacingTop=-20;whiteSpace=wrap;overflow=hidden;rounded=0;" parent="IJfOhzG1JKlrrVF2jmxx-1" vertex="1">
          <mxGeometry x="80" y="180" width="430" height="70" as="geometry" />
        </mxCell>
        <mxCell id="IJfOhzG1JKlrrVF2jmxx-11" value="" style="verticalLabelPosition=bottom;html=1;verticalAlign=top;align=center;strokeColor=none;fillColor=#333333;shape=mxgraph.azure.github_code;pointerEvents=1;" parent="IJfOhzG1JKlrrVF2jmxx-1" vertex="1">
          <mxGeometry x="600" y="185" width="50" height="50" as="geometry" />
        </mxCell>
        <mxCell id="IJfOhzG1JKlrrVF2jmxx-12" value="GitHub" style="text;html=1;strokeColor=none;fillColor=none;align=center;verticalAlign=middle;whiteSpace=wrap;rounded=0;" parent="IJfOhzG1JKlrrVF2jmxx-1" vertex="1">
          <mxGeometry x="594" y="155" width="60" height="30" as="geometry" />
        </mxCell>
        <mxCell id="IJfOhzG1JKlrrVF2jmxx-15" value="" style="whiteSpace=wrap;html=1;shape=mxgraph.basic.document" parent="IJfOhzG1JKlrrVF2jmxx-1" vertex="1">
          <mxGeometry x="215" y="290" width="40" height="40" as="geometry" />
        </mxCell>
        <mxCell id="IJfOhzG1JKlrrVF2jmxx-16" value="README.md" style="text;html=1;align=center;verticalAlign=middle;resizable=0;points=[];autosize=1;strokeColor=none;fillColor=none;" parent="IJfOhzG1JKlrrVF2jmxx-1" vertex="1">
          <mxGeometry x="190" y="330" width="90" height="30" as="geometry" />
        </mxCell>
        <mxCell id="IJfOhzG1JKlrrVF2jmxx-19" value="Link" style="text;html=1;strokeColor=none;fillColor=none;align=center;verticalAlign=middle;whiteSpace=wrap;rounded=0;" parent="IJfOhzG1JKlrrVF2jmxx-1" vertex="1">
          <mxGeometry x="520" y="275" width="60" height="30" as="geometry" />
        </mxCell>
        <mxCell id="IJfOhzG1JKlrrVF2jmxx-20" value="" style="endArrow=diamondThin;startArrow=diamondThin;html=1;rounded=0;strokeWidth=4;startFill=1;endFill=1;" parent="IJfOhzG1JKlrrVF2jmxx-1" edge="1">
          <mxGeometry width="50" height="50" relative="1" as="geometry">
            <mxPoint x="518" y="309" as="sourcePoint" />
            <mxPoint x="583" y="309" as="targetPoint" />
          </mxGeometry>
        </mxCell>
        <mxCell id="rDdjLYK55O0rEiuM0s3c-0" value="" style="rounded=0;whiteSpace=wrap;html=1;strokeWidth=2;" vertex="1" parent="IJfOhzG1JKlrrVF2jmxx-1">
          <mxGeometry x="600" y="240" width="320" height="370" as="geometry" />
        </mxCell>
        <mxCell id="rDdjLYK55O0rEiuM0s3c-1" value="https://github.com/YOUR_NAME/lerning_git" style="text;html=1;align=right;verticalAlign=middle;resizable=0;points=[];autosize=1;strokeColor=none;fillColor=none;" vertex="1" parent="IJfOhzG1JKlrrVF2jmxx-1">
          <mxGeometry x="660" y="210" width="260" height="30" as="geometry" />
        </mxCell>
        <mxCell id="mQzSypGfMxB1TPhzI-HP-0" value="Call &quot;origin" style="text;html=1;strokeColor=none;fillColor=none;align=right;verticalAlign=middle;whiteSpace=wrap;rounded=0;" vertex="1" parent="IJfOhzG1JKlrrVF2jmxx-1">
          <mxGeometry x="790" y="190" width="130" height="30" as="geometry" />
        </mxCell>
      </root>
    </mxGraphModel>
  </diagram>
  <diagram name="git-push" id="IIjg3h3-hwVgYYz0F76M">
    <mxGraphModel dx="1194" dy="812" grid="1" gridSize="10" guides="1" tooltips="1" connect="1" arrows="1" fold="1" page="1" pageScale="1" pageWidth="827" pageHeight="1169" math="0" shadow="0">
      <root>
        <mxCell id="UJIzYrHelhGBfIpLEu2i-0" />
        <mxCell id="UJIzYrHelhGBfIpLEu2i-1" parent="UJIzYrHelhGBfIpLEu2i-0" />
        <mxCell id="2jItDByRYYhCUlLDloqq-0" value="" style="rounded=0;whiteSpace=wrap;html=1;strokeWidth=2;" vertex="1" parent="UJIzYrHelhGBfIpLEu2i-1">
          <mxGeometry x="179.99999999999997" y="240" width="320" height="370" as="geometry" />
        </mxCell>
        <mxCell id="2jItDByRYYhCUlLDloqq-1" value="learning_git" style="text;html=1;align=right;verticalAlign=middle;resizable=0;points=[];autosize=1;strokeColor=none;fillColor=none;" vertex="1" parent="UJIzYrHelhGBfIpLEu2i-1">
          <mxGeometry x="410" y="210" width="90" height="30" as="geometry" />
        </mxCell>
        <mxCell id="UJIzYrHelhGBfIpLEu2i-2" value="" style="rounded=0;whiteSpace=wrap;html=1;strokeWidth=2;strokeColor=#67AB9F;" parent="UJIzYrHelhGBfIpLEu2i-1" vertex="1">
          <mxGeometry x="190" y="250" width="300" height="110" as="geometry" />
        </mxCell>
        <mxCell id="UJIzYrHelhGBfIpLEu2i-3" value="" style="sketch=0;aspect=fixed;pointerEvents=1;shadow=0;dashed=0;html=1;strokeColor=none;labelPosition=center;verticalLabelPosition=bottom;verticalAlign=top;align=center;fillColor=#222222;shape=mxgraph.azure.computer" parent="UJIzYrHelhGBfIpLEu2i-1" vertex="1">
          <mxGeometry x="87.22" y="360" width="77.78" height="70" as="geometry" />
        </mxCell>
        <mxCell id="UJIzYrHelhGBfIpLEu2i-4" value="Local" style="text;html=1;strokeColor=none;fillColor=none;align=center;verticalAlign=middle;whiteSpace=wrap;rounded=0;" parent="UJIzYrHelhGBfIpLEu2i-1" vertex="1">
          <mxGeometry x="96.11000000000001" y="330" width="60" height="30" as="geometry" />
        </mxCell>
        <mxCell id="UJIzYrHelhGBfIpLEu2i-5" value="repository" style="text;html=1;strokeColor=none;fillColor=none;align=center;verticalAlign=middle;whiteSpace=wrap;rounded=0;fontStyle=1" parent="UJIzYrHelhGBfIpLEu2i-1" vertex="1">
          <mxGeometry x="194" y="250" width="60" height="30" as="geometry" />
        </mxCell>
        <mxCell id="UJIzYrHelhGBfIpLEu2i-6" value="" style="rounded=0;whiteSpace=wrap;html=1;strokeWidth=2;strokeColor=#EA6B66;" parent="UJIzYrHelhGBfIpLEu2i-1" vertex="1">
          <mxGeometry x="190" y="370" width="300" height="110" as="geometry" />
        </mxCell>
        <mxCell id="UJIzYrHelhGBfIpLEu2i-7" value="staging" style="text;html=1;strokeColor=none;fillColor=none;align=left;verticalAlign=middle;whiteSpace=wrap;rounded=0;fontStyle=1" parent="UJIzYrHelhGBfIpLEu2i-1" vertex="1">
          <mxGeometry x="194" y="370" width="60" height="30" as="geometry" />
        </mxCell>
        <mxCell id="UJIzYrHelhGBfIpLEu2i-8" value="" style="rounded=0;whiteSpace=wrap;html=1;strokeWidth=2;strokeColor=#A680B8;" parent="UJIzYrHelhGBfIpLEu2i-1" vertex="1">
          <mxGeometry x="190" y="490" width="300" height="110" as="geometry" />
        </mxCell>
        <mxCell id="UJIzYrHelhGBfIpLEu2i-9" value="working directory" style="text;html=1;strokeColor=none;fillColor=none;align=left;verticalAlign=middle;whiteSpace=wrap;rounded=0;fontStyle=1" parent="UJIzYrHelhGBfIpLEu2i-1" vertex="1">
          <mxGeometry x="194" y="490" width="116" height="30" as="geometry" />
        </mxCell>
        <mxCell id="UJIzYrHelhGBfIpLEu2i-15" value="" style="whiteSpace=wrap;html=1;shape=mxgraph.basic.document" parent="UJIzYrHelhGBfIpLEu2i-1" vertex="1">
          <mxGeometry x="215" y="290" width="40" height="40" as="geometry" />
        </mxCell>
        <mxCell id="UJIzYrHelhGBfIpLEu2i-16" value="README.md" style="text;html=1;align=center;verticalAlign=middle;resizable=0;points=[];autosize=1;strokeColor=none;fillColor=none;" parent="UJIzYrHelhGBfIpLEu2i-1" vertex="1">
          <mxGeometry x="190" y="330" width="90" height="30" as="geometry" />
        </mxCell>
        <mxCell id="9BkDVUQOalv6xpWGgyC9-2" value="push" style="text;html=1;strokeColor=none;fillColor=none;align=center;verticalAlign=middle;whiteSpace=wrap;rounded=0;" parent="UJIzYrHelhGBfIpLEu2i-1" vertex="1">
          <mxGeometry x="520" y="275" width="60" height="30" as="geometry" />
        </mxCell>
        <mxCell id="9BkDVUQOalv6xpWGgyC9-3" value="" style="endArrow=block;startArrow=none;html=1;rounded=0;strokeWidth=4;startFill=0;endFill=1;" parent="UJIzYrHelhGBfIpLEu2i-1" edge="1">
          <mxGeometry width="50" height="50" relative="1" as="geometry">
            <mxPoint x="518" y="309" as="sourcePoint" />
            <mxPoint x="583" y="309" as="targetPoint" />
          </mxGeometry>
        </mxCell>
        <mxCell id="CcGwf6xobVWZswfnajuz-0" value="" style="verticalLabelPosition=bottom;html=1;verticalAlign=top;align=center;strokeColor=none;fillColor=#333333;shape=mxgraph.azure.github_code;pointerEvents=1;" vertex="1" parent="UJIzYrHelhGBfIpLEu2i-1">
          <mxGeometry x="600" y="185" width="50" height="50" as="geometry" />
        </mxCell>
        <mxCell id="CcGwf6xobVWZswfnajuz-1" value="GitHub" style="text;html=1;strokeColor=none;fillColor=none;align=center;verticalAlign=middle;whiteSpace=wrap;rounded=0;" vertex="1" parent="UJIzYrHelhGBfIpLEu2i-1">
          <mxGeometry x="594" y="155" width="60" height="30" as="geometry" />
        </mxCell>
        <mxCell id="CcGwf6xobVWZswfnajuz-2" value="" style="rounded=0;whiteSpace=wrap;html=1;strokeWidth=2;" vertex="1" parent="UJIzYrHelhGBfIpLEu2i-1">
          <mxGeometry x="600" y="240" width="320" height="370" as="geometry" />
        </mxCell>
        <mxCell id="CcGwf6xobVWZswfnajuz-3" value="https://github.com/YOUR_NAME/lerning_git" style="text;html=1;align=right;verticalAlign=middle;resizable=0;points=[];autosize=1;strokeColor=none;fillColor=none;" vertex="1" parent="UJIzYrHelhGBfIpLEu2i-1">
          <mxGeometry x="660" y="210" width="260" height="30" as="geometry" />
        </mxCell>
        <mxCell id="CcGwf6xobVWZswfnajuz-4" value="" style="whiteSpace=wrap;html=1;shape=mxgraph.basic.document" vertex="1" parent="UJIzYrHelhGBfIpLEu2i-1">
          <mxGeometry x="625" y="275" width="40" height="40" as="geometry" />
        </mxCell>
        <mxCell id="CcGwf6xobVWZswfnajuz-5" value="README.md" style="text;html=1;align=center;verticalAlign=middle;resizable=0;points=[];autosize=1;strokeColor=none;fillColor=none;" vertex="1" parent="UJIzYrHelhGBfIpLEu2i-1">
          <mxGeometry x="600" y="315" width="90" height="30" as="geometry" />
        </mxCell>
        <mxCell id="2jItDByRYYhCUlLDloqq-3" value="&lt;h1&gt;git push origin main -u&lt;/h1&gt;" style="text;html=1;strokeColor=none;fillColor=none;spacing=5;spacingTop=-20;whiteSpace=wrap;overflow=hidden;rounded=0;" vertex="1" parent="UJIzYrHelhGBfIpLEu2i-1">
          <mxGeometry x="87.22" y="190" width="430" height="70" as="geometry" />
        </mxCell>
      </root>
    </mxGraphModel>
  </diagram>
</mxfile>
